<?xml version="1.0" encoding="utf-8"?>
<!-- Generator: Adobe Illustrator 19.0.0, SVG Export Plug-In . SVG Version: 6.00 Build 0)  -->
<svg version="1.1" id="Layer_1" xmlns="http://www.w3.org/2000/svg" xmlns:xlink="http://www.w3.org/1999/xlink" x="0px" y="0px"
	 viewBox="0 0 136.5 27" style="enable-background:new 0 0 136.5 27;" xml:space="preserve">
<style type="text/css">
	.st0{fill:none;stroke:#FFFFFF;stroke-miterlimit:10;}
	.st1{fill:#FFFFFF;}
	.st2{fill:none;stroke:#FFFFFF;stroke-width:0.5;stroke-miterlimit:10;}
</style>
<g id="XMLID_104_">
	<path id="XMLID_105_" class="st0" d="M43.4,21.9h-4.2L34.7,15l-2.2,2.7v4.2H29V5.1h3.5v7.8l6.4-7.8H43l-5.9,7L43.4,21.9z"/>
	<path id="XMLID_107_" class="st0" d="M45.4,5.1h3.5v16.8h-3.5V5.1z"/>
	<path id="XMLID_109_" class="st0" d="M60,8.5C59.1,8.2,58.3,8,57.7,8c-0.6,0-1.1,0.1-1.4,0.4c-0.4,0.2-0.5,0.6-0.5,1.1
		c0,0.6,0.3,1,0.8,1.4c0.5,0.3,1.3,0.6,2.4,1s1.9,0.7,2.6,1s1.3,0.8,1.8,1.5s0.7,1.6,0.7,2.7c0,1.1-0.3,2-0.8,2.8
		c-0.5,0.8-1.2,1.4-2.2,1.8c-0.9,0.4-2,0.6-3.1,0.6c-1.3,0-2.5-0.2-3.7-0.7c-1.2-0.5-2.3-1.1-3.2-2l1.4-3.1c0.8,0.8,1.7,1.4,2.7,1.8
		s2,0.7,2.8,0.7c0.7,0,1.3-0.1,1.7-0.4c0.4-0.3,0.6-0.7,0.6-1.2c0-0.4-0.1-0.8-0.4-1.1c-0.3-0.3-0.6-0.5-1-0.7
		c-0.4-0.2-1-0.4-1.7-0.6c-1.1-0.3-1.9-0.6-2.6-1s-1.3-0.8-1.7-1.5c-0.5-0.7-0.7-1.5-0.7-2.6c0-1,0.3-1.9,0.8-2.7
		c0.5-0.8,1.2-1.3,2.1-1.8c0.9-0.4,2-0.6,3.2-0.6c1.1,0,2.1,0.2,3.2,0.5c1,0.3,2,0.8,2.8,1.3l-1.4,3.1C61.7,9.2,60.9,8.8,60,8.5z"/>
	<path id="XMLID_111_" class="st0" d="M74.1,8.5C73.2,8.2,72.5,8,71.8,8c-0.6,0-1.1,0.1-1.4,0.4C70,8.6,69.9,9,69.9,9.4
		c0,0.6,0.3,1,0.8,1.4c0.5,0.3,1.3,0.6,2.4,1s1.9,0.7,2.6,1s1.3,0.8,1.8,1.5s0.7,1.6,0.7,2.7c0,1.1-0.3,2-0.8,2.8
		c-0.5,0.8-1.2,1.4-2.2,1.8c-0.9,0.4-2,0.6-3.1,0.6c-1.3,0-2.5-0.2-3.7-0.7c-1.2-0.5-2.3-1.1-3.2-2l1.4-3.1c0.8,0.8,1.7,1.4,2.7,1.8
		s2,0.7,2.8,0.7c0.7,0,1.3-0.1,1.7-0.4c0.4-0.3,0.6-0.7,0.6-1.2c0-0.4-0.1-0.8-0.4-1.1c-0.3-0.3-0.6-0.5-1-0.7
		c-0.4-0.2-1-0.4-1.7-0.6c-1.1-0.3-1.9-0.6-2.6-1s-1.3-0.8-1.7-1.5c-0.5-0.7-0.7-1.5-0.7-2.6c0-1,0.3-1.9,0.8-2.7
		c0.5-0.8,1.2-1.3,2.1-1.8c0.9-0.4,2-0.6,3.2-0.6c1.1,0,2.1,0.2,3.2,0.5c1,0.3,2,0.8,2.8,1.3l-1.4,3.1C75.9,9.2,75,8.8,74.1,8.5z"/>
	<path id="XMLID_113_" class="st0" d="M92.1,5.9c1.3,0.8,2.3,1.8,3,3.1c0.7,1.3,1.1,2.8,1.1,4.4c0,1.6-0.4,3.1-1.1,4.4
		c-0.7,1.3-1.7,2.4-3,3.1c-1.3,0.8-2.7,1.1-4.2,1.1s-3-0.4-4.2-1.1c-1.3-0.8-2.3-1.8-3-3.1c-0.7-1.3-1.1-2.8-1.1-4.4
		c0-1.6,0.4-3.1,1.1-4.4c0.7-1.3,1.7-2.4,3-3.1c1.3-0.8,2.7-1.1,4.3-1.1C89.4,4.8,90.8,5.2,92.1,5.9z M85.5,8.8
		c-0.7,0.5-1.3,1.1-1.8,1.9c-0.4,0.8-0.6,1.7-0.6,2.7c0,1,0.2,1.9,0.7,2.7c0.4,0.8,1,1.5,1.8,1.9c0.7,0.5,1.5,0.7,2.4,0.7
		c0.9,0,1.6-0.2,2.4-0.7c0.7-0.5,1.3-1.1,1.7-1.9c0.4-0.8,0.6-1.7,0.6-2.7c0-1-0.2-1.9-0.6-2.7c-0.4-0.8-1-1.5-1.7-1.9
		c-0.7-0.5-1.5-0.7-2.4-0.7C87,8.1,86.2,8.3,85.5,8.8z"/>
	<path id="XMLID_116_" class="st0" d="M109.6,5.9c1.3,0.8,2.3,1.8,3,3.1c0.7,1.3,1.1,2.8,1.1,4.4c0,1.6-0.4,3.1-1.1,4.4
		c-0.7,1.3-1.7,2.4-3,3.1c-1.3,0.8-2.7,1.1-4.2,1.1s-3-0.4-4.2-1.1c-1.3-0.8-2.3-1.8-3-3.1c-0.7-1.3-1.1-2.8-1.1-4.4
		c0-1.6,0.4-3.1,1.1-4.4c0.7-1.3,1.7-2.4,3-3.1c1.3-0.8,2.7-1.1,4.3-1.1C106.9,4.8,108.3,5.2,109.6,5.9z M103,8.8
		c-0.7,0.5-1.3,1.1-1.8,1.9c-0.4,0.8-0.6,1.7-0.6,2.7c0,1,0.2,1.9,0.7,2.7c0.4,0.8,1,1.5,1.8,1.9c0.7,0.5,1.5,0.7,2.4,0.7
		c0.9,0,1.6-0.2,2.4-0.7c0.7-0.5,1.3-1.1,1.7-1.9c0.4-0.8,0.6-1.7,0.6-2.7c0-1-0.2-1.9-0.6-2.7c-0.4-0.8-1-1.5-1.7-1.9
		c-0.7-0.5-1.5-0.7-2.4-0.7C104.5,8.1,103.7,8.3,103,8.8z"/>
	<path id="XMLID_119_" class="st0" d="M126.7,5.1h3.3v16.8h-3.2l-7.5-10.8v10.8H116V5.1h3.2l7.5,10.8V5.1z"/>
</g>
<g id="XMLID_100_">
	<path id="XMLID_101_" class="st1" d="M133.2,3.6V5h-0.7V1.4h1c0.5,0,0.8,0.1,1,0.3s0.3,0.4,0.3,0.8c0,0.2-0.1,0.4-0.2,0.6
		c-0.1,0.2-0.3,0.3-0.5,0.4c0.5,0.8,0.8,1.3,1,1.6h-0.8l-0.8-1.4H133.2z M133.2,3h0.2c0.2,0,0.4,0,0.5-0.1c0.1-0.1,0.2-0.2,0.2-0.4
		c0-0.2-0.1-0.3-0.2-0.4S133.7,2,133.5,2h-0.2V3z"/>
</g>
<ellipse id="XMLID_10_" class="st2" cx="133.6" cy="3" rx="2.6" ry="2.8"/>
<circle id="XMLID_3_" class="st0" cx="13" cy="14" r="12.5"/>
<g id="XMLID_97_">
	<path id="XMLID_98_" class="st1" d="M13.5,8.4c-1,0-1.8,0.2-2.6,0.7s-1.3,1.1-1.8,1.9c-0.4,0.8-0.6,1.8-0.6,2.9
		c0,1.1,0.2,2.1,0.6,2.9c0.4,0.8,1,1.5,1.7,2c0.7,0.5,1.6,0.7,2.5,0.7s1.8-0.2,2.6-0.5c0.8-0.3,1.4-0.8,1.9-1.5l1.5,1.6
		c-0.7,0.9-1.5,1.6-2.5,2.1c-1,0.5-2.2,0.7-3.5,0.7c-1.4,0-2.7-0.3-3.8-1s-2-1.6-2.6-2.8C6.3,16.9,6,15.5,6,14
		c0-1.6,0.3-2.9,0.9-4.2C7.5,8.6,8.4,7.6,9.5,7c1.1-0.7,2.4-1,3.8-1c1.2,0,2.4,0.2,3.3,0.6c1,0.4,1.8,1,2.5,1.8l-1.4,1.9
		C16.5,9,15.1,8.4,13.5,8.4z"/>
</g>
</svg>
